<svg width="1584" height="396" viewBox="0 0 1584 396" fill="none" xmlns="http://www.w3.org/2000/svg">
<rect width="1584" height="396" fill="#F5F5F5"/>
<g id="Awesome banner" clip-path="url(#clip0_0_1)">
<rect width="1584" height="396" fill="url(#paint0_linear_0_1)"/>
<ellipse id="Ellipse 2" cx="323" cy="64" rx="285" ry="288" fill="url(#paint1_linear_0_1)" fill-opacity="0.1"/>
<g id="copyright">
<path d="M75.95 334.52L72.30 334.52L72.30 311.16L77.20 311.16L83.70 330.04Q83.60 329.02 83.50 327.62Q83.41 326.23 83.33 324.79Q83.25 323.35 83.25 322.23L83.25 311.16L86.90 311.16L86.90 334.52L82 334.52L75.57 315.64Q75.63 316.57 75.73 317.88Q75.82 319.19 75.89 320.57Q75.95 321.94 75.95 323.10L75.95 334.52M98.80 334.84Q96.46 334.84 94.67 333.96Q92.88 333.08 91.89 331.53Q90.90 329.98 90.90 327.93Q90.90 325.78 92.13 324.18Q93.36 322.58 95.34 322.17L95.34 322.10Q93.65 321.75 92.61 320.38Q91.57 319 91.57 317.11Q91.57 315.26 92.48 313.85Q93.39 312.44 95.02 311.64Q96.66 310.84 98.80 310.84Q100.94 310.84 102.59 311.64Q104.24 312.44 105.15 313.85Q106.06 315.26 106.06 317.11Q106.06 319 105.01 320.38Q103.95 321.75 102.26 322.10L102.26 322.17Q104.24 322.58 105.47 324.18Q106.70 325.78 106.70 327.93Q106.70 329.98 105.71 331.53Q104.72 333.08 102.93 333.96Q101.14 334.84 98.80 334.84M98.80 320.73Q100.30 320.73 101.23 319.82Q102.16 318.90 102.16 317.46Q102.16 315.99 101.23 315.08Q100.30 314.17 98.80 314.17Q97.30 314.17 96.37 315.08Q95.44 315.99 95.44 317.46Q95.44 318.90 96.37 319.82Q97.30 320.73 98.80 320.73M98.80 331.45Q100.56 331.45 101.68 330.42Q102.80 329.40 102.80 327.74Q102.80 326.04 101.68 325Q100.56 323.96 98.80 323.96Q97.04 323.96 95.92 325Q94.80 326.04 94.80 327.74Q94.80 329.40 95.92 330.42Q97.04 331.45 98.80 331.45M114.35 334.52L110.70 334.52L110.70 311.16L115.60 311.16L122.10 330.04Q122 329.02 121.90 327.62Q121.81 326.23 121.73 324.79Q121.65 323.35 121.65 322.23L121.65 311.16L125.30 311.16L125.30 334.52L120.40 334.52L113.97 315.64Q114.03 316.57 114.13 317.88Q114.22 319.19 114.29 320.57Q114.35 321.94 114.35 323.10" fill="white" fill-opacity="0.9"/>
<path d="M161.48 325.24L151.24 325.24L151.24 322.68L161.48 322.68" fill="white" fill-opacity="0.9"/>
<path d="M195.02 334.84Q191.82 334.84 189.96 333.05Q188.11 331.26 188.11 328.12L188.11 317.56Q188.11 314.42 189.96 312.63Q191.82 310.84 195.02 310.84Q198.15 310.84 200.01 312.65Q201.87 314.46 201.87 317.56L198.99 317.56Q198.99 315.58 197.95 314.50Q196.91 313.43 195.02 313.43Q193.13 313.43 192.06 314.50Q190.99 315.58 190.99 317.56L190.99 328.12Q190.99 330.10 192.06 331.18Q193.13 332.25 195.02 332.25Q196.91 332.25 197.95 331.18Q198.99 330.10 198.99 328.12L201.87 328.12Q201.87 331.22 200.01 333.03Q198.15 334.84 195.02 334.84" fill="white" fill-opacity="0.9"/>
<path d="M213.96 334.84Q210.83 334.84 209 333.02Q207.18 331.19 207.18 327.80L207.18 317.88Q207.18 314.49 209 312.66Q210.83 310.84 213.96 310.84Q217.10 310.84 218.92 312.66Q220.75 314.49 220.75 317.85L220.75 327.80Q220.75 331.19 218.92 333.02Q217.10 334.84 213.96 334.84M213.96 332.25Q215.85 332.25 216.86 331.18Q217.87 330.10 217.87 328.12L217.87 317.56Q217.87 315.58 216.86 314.50Q215.85 313.43 213.96 313.43Q212.11 313.43 211.08 314.50Q210.06 315.58 210.06 317.56L210.06 328.12Q210.06 330.10 211.08 331.18Q212.11 332.25 213.96 332.25" fill="white" fill-opacity="0.9"/>
<path d="M228.65 334.52L225.87 334.52L225.87 311.16L230.12 311.16L233.10 321.27L236.20 311.16L240.46 311.16L240.46 334.52L237.67 334.52L237.67 323.48Q237.67 321.91 237.72 319.88Q237.77 317.85 237.87 315.77Q237.96 313.69 238.09 312.02L234.31 324.09L231.82 324.09L228.20 312.31Q228.46 314.68 228.55 317.50Q228.65 320.31 228.65 323.48" fill="white" fill-opacity="0.9"/>
<path d="M247.85 334.52L245.07 334.52L245.07 311.16L249.32 311.16L252.30 321.27L255.40 311.16L259.66 311.16L259.66 334.52L256.87 334.52L256.87 323.48Q256.87 321.91 256.92 319.88Q256.97 317.85 257.07 315.77Q257.16 313.69 257.29 312.02L253.51 324.09L251.02 324.09L247.40 312.31Q247.66 314.68 247.75 317.50Q247.85 320.31 247.85 323.48" fill="white" fill-opacity="0.9"/>
<path d="M271.56 334.84Q268.30 334.84 266.57 333.03Q264.84 331.22 264.84 328.12L264.84 311.16L267.72 311.16L267.72 328.12Q267.72 330.04 268.67 331.16Q269.61 332.28 271.56 332.28Q273.48 332.28 274.44 331.16Q275.40 330.04 275.40 328.12L275.40 311.16L278.28 311.16L278.28 328.12Q278.28 331.26 276.57 333.05Q274.86 334.84 271.56 334.84" fill="white" fill-opacity="0.9"/>
<path d="M286.83 334.52L284.04 334.52L284.04 311.16L287.88 311.16L295.02 331.16Q294.95 330.36 294.87 329.19Q294.79 328.02 294.75 326.73Q294.70 325.43 294.70 324.28L294.70 311.16L297.48 311.16L297.48 334.52L293.64 334.52L286.54 314.52Q286.60 315.29 286.67 316.46Q286.73 317.62 286.78 318.92Q286.83 320.22 286.83 321.40" fill="white" fill-opacity="0.9"/>
<path d="M316.20 334.52L303.72 334.52L303.72 331.90L308.49 331.90L308.49 313.78L303.72 313.78L303.72 311.16L316.20 311.16L316.20 313.78L311.43 313.78L311.43 331.90L316.20 331.90" fill="white" fill-opacity="0.9"/>
<path d="M330.60 334.52L327.72 334.52L327.72 313.78L321.32 313.78L321.32 311.16L337 311.16L337 313.78L330.60 313.78" fill="white" fill-opacity="0.9"/>
<path d="M349.80 334.52L346.92 334.52L346.92 325.78L339.88 311.16L342.95 311.16L347.50 320.76Q347.88 321.56 348.11 322.12Q348.33 322.68 348.39 322.94Q348.46 322.68 348.70 322.12Q348.94 321.56 349.32 320.76L353.87 311.16L356.84 311.16L349.80 325.78" fill="white" fill-opacity="0.9"/>
<path d="M382.83 334.52L380.04 334.52L380.04 311.16L383.88 311.16L391.02 331.16Q390.95 330.36 390.87 329.19Q390.79 328.02 390.75 326.73Q390.70 325.43 390.70 324.28L390.70 311.16L393.48 311.16L393.48 334.52L389.64 334.52L382.54 314.52Q382.60 315.29 382.67 316.46Q382.73 317.62 382.78 318.92Q382.83 320.22 382.83 321.40" fill="white" fill-opacity="0.9"/>
<path d="M405.96 334.84Q402.83 334.84 401 333.02Q399.18 331.19 399.18 327.80L399.18 317.88Q399.18 314.49 401 312.66Q402.83 310.84 405.96 310.84Q409.10 310.84 410.92 312.66Q412.75 314.49 412.75 317.85L412.75 327.80Q412.75 331.19 410.92 333.02Q409.10 334.84 405.96 334.84M405.96 332.25Q407.85 332.25 408.86 331.18Q409.87 330.10 409.87 328.12L409.87 317.56Q409.87 315.58 408.86 314.50Q407.85 313.43 405.96 313.43Q404.11 313.43 403.08 314.50Q402.06 315.58 402.06 317.56L402.06 328.12Q402.06 330.10 403.08 331.18Q404.11 332.25 405.96 332.25" fill="white" fill-opacity="0.9"/>
<path d="M424.55 334.52L418.51 334.52L418.51 311.16L424.55 311.16Q426.83 311.16 428.47 312.02Q430.12 312.89 431.03 314.46Q431.95 316.02 431.95 318.17L431.95 327.48Q431.95 329.62 431.03 331.21Q430.12 332.79 428.47 333.66Q426.83 334.52 424.55 334.52M421.39 313.72L421.39 331.96L424.55 331.96Q426.67 331.96 427.87 330.78Q429.07 329.59 429.07 327.48L429.07 318.17Q429.07 316.09 427.87 314.90Q426.67 313.72 424.55 313.72" fill="white" fill-opacity="0.9"/>
<path d="M451.40 334.52L437.96 334.52L437.96 311.16L451.40 311.16L451.40 313.78L440.81 313.78L440.81 321.02L450.28 321.02L450.28 323.58L440.81 323.58L440.81 331.90L451.40 331.90" fill="white" fill-opacity="0.9"/>
<path d="M463.69 334.84Q460.30 334.84 458.28 333.05Q456.27 331.26 456.27 328.12L459.15 328.12Q459.15 330.07 460.39 331.18Q461.64 332.28 463.69 332.28Q465.67 332.28 466.86 331.13Q468.04 329.98 468.04 328.12Q468.04 326.71 467.29 325.67Q466.54 324.63 465.13 324.25L461.58 323.26Q459.37 322.62 458.11 320.97Q456.84 319.32 456.84 317.08Q456.84 315.22 457.67 313.82Q458.51 312.41 460.01 311.62Q461.51 310.84 463.47 310.84Q465.45 310.84 466.97 311.62Q468.49 312.41 469.35 313.80Q470.22 315.19 470.22 317.02L467.34 317.02Q467.34 315.42 466.25 314.41Q465.16 313.40 463.47 313.40Q461.77 313.40 460.71 314.41Q459.66 315.42 459.66 317.02Q459.66 318.30 460.35 319.21Q461.03 320.12 462.28 320.47L465.93 321.50Q468.27 322.14 469.56 323.91Q470.86 325.69 470.86 328.12Q470.86 331.19 468.91 333.02Q466.95 334.84 463.69 334.84" fill="white" fill-opacity="0.9"/>
</g>
<path d="M78.66 197.64L75.71 197.64L71.20 180.12L73.41 180.12L76.41 192.05Q76.72 193.30 76.92 194.35Q77.13 195.41 77.22 195.96Q77.32 195.41 77.55 194.34Q77.78 193.27 78.09 192.02L80.97 180.12L83.20 180.12" fill="white" fill-opacity="0.7"/>
<path d="M91.60 197.83Q89.22 197.83 87.82 196.44Q86.42 195.05 86.42 192.55L86.42 189.53Q86.42 187.01 87.81 185.63Q89.20 184.25 91.60 184.25Q94 184.25 95.39 185.63Q96.78 187.01 96.78 189.53L96.78 192.55Q96.78 195.05 95.38 196.44Q93.98 197.83 91.60 197.83M91.60 195.91Q93.02 195.91 93.82 195.12Q94.62 194.33 94.62 192.79L94.62 189.29Q94.62 187.75 93.82 186.96Q93.02 186.17 91.60 186.17Q90.21 186.17 89.39 186.96Q88.58 187.75 88.58 189.29L88.58 192.79Q88.58 194.33 89.39 195.12Q90.21 195.91 91.60 195.91" fill="white" fill-opacity="0.7"/>
<path d="M103.17 197.64L101.01 197.64L101.01 184.44L103.17 184.44L103.17 186.96L103.19 186.96Q103.36 185.64 104.27 184.92Q105.18 184.20 106.70 184.20Q108.69 184.20 109.86 185.42Q111.04 186.65 111.04 188.76L111.04 197.64L108.88 197.64L108.88 189.14Q108.88 187.63 108.12 186.83Q107.37 186.02 106.07 186.02Q104.73 186.02 103.95 186.86Q103.17 187.70 103.17 189.24" fill="white" fill-opacity="0.7"/>
<path d="M119.25 197.88Q117.21 197.88 116.01 196.74Q114.81 195.60 114.81 193.75Q114.81 192.53 115.36 191.62Q115.91 190.70 116.90 190.19Q117.88 189.67 119.15 189.67L123.23 189.67L123.23 188.64Q123.23 186.07 120.42 186.07Q119.18 186.07 118.41 186.53Q117.64 186.98 117.59 187.80L115.43 187.80Q115.55 186.24 116.88 185.22Q118.22 184.20 120.42 184.20Q122.82 184.20 124.11 185.35Q125.39 186.50 125.39 188.57L125.39 197.64L123.26 197.64L123.26 195.24L123.21 195.24Q123.02 196.46 121.98 197.17Q120.95 197.88 119.25 197.88M119.78 196.06Q121.36 196.06 122.30 195.29Q123.23 194.52 123.23 193.20L123.23 191.35L119.39 191.35Q118.34 191.35 117.68 191.99Q117.02 192.62 117.02 193.68Q117.02 194.78 117.75 195.42Q118.48 196.06 119.78 196.06" fill="white" fill-opacity="0.7"/>
<path d="M135.16 201.96L131.46 201.96L131.46 199.99L135.18 199.99Q136.31 199.99 136.96 199.36Q137.61 198.72 137.61 197.64L137.61 196.44L137.66 194.28L137.58 194.28Q137.39 195.46 136.46 196.09Q135.52 196.73 134.10 196.73Q132.06 196.73 130.89 195.43Q129.71 194.14 129.71 191.88L129.71 189.10Q129.71 186.84 130.89 185.52Q132.06 184.20 134.10 184.20Q135.52 184.20 136.46 184.87Q137.39 185.54 137.58 186.72L137.63 186.72L137.63 184.44L139.77 184.44L139.77 197.64Q139.77 199.63 138.53 200.80Q137.30 201.96 135.16 201.96M134.75 194.93Q136.10 194.93 136.86 194.09Q137.63 193.25 137.63 191.76L137.63 189.24Q137.63 187.75 136.86 186.91Q136.10 186.07 134.75 186.07Q133.38 186.07 132.63 186.86Q131.87 187.66 131.87 189L131.87 192Q131.87 193.34 132.63 194.14Q133.38 194.93 134.75 194.93" fill="white" fill-opacity="0.7"/>
<path d="M149.20 197.88Q146.87 197.88 145.44 196.48Q144.02 195.07 144.02 192.60L144.02 189.48Q144.02 187.01 145.44 185.60Q146.87 184.20 149.20 184.20Q150.76 184.20 151.92 184.82Q153.09 185.45 153.74 186.58Q154.38 187.70 154.38 189.24L154.38 191.59L146.13 191.59L146.13 192.84Q146.13 194.30 146.97 195.16Q147.81 196.01 149.20 196.01Q150.40 196.01 151.18 195.54Q151.96 195.07 152.13 194.28L154.29 194.28Q154.07 195.94 152.68 196.91Q151.29 197.88 149.20 197.88M146.13 189.24L146.13 189.91L152.27 189.91L152.27 189.24Q152.27 187.68 151.47 186.83Q150.66 185.98 149.20 185.98Q147.74 185.98 146.93 186.83Q146.13 187.68 146.13 189.24" fill="white" fill-opacity="0.7"/>
<path d="M178.36 197.64L173.03 197.64L173.03 180.12LNaN 180.12Q180.40 180.12 181.76 181.32Q183.11 182.52 183.11 184.66Q183.11 186 182.26 187.08Q181.41 188.16 180.04 188.42L180.04 188.50Q181.07 188.62 181.85 189.22Q182.63 189.82 183.08 190.74Q183.52 191.66 183.52 192.77Q183.52 195.02 182.14 196.33Q180.76 197.64 178.36 197.64M175.14 182.06L175.14 187.58L177.98 187.58Q179.37 187.58 180.17 186.84Q180.98 186.10 180.98 184.82Q180.98 183.55 180.18 182.81Q179.39 182.06 NaN 182.06L175.14 182.06M175.14 189.46L175.14 195.70L178.12 195.70Q179.63 195.70 180.51 194.89Q181.38 194.09 181.38 192.70Q181.38 191.26 180.51 190.36Q179.63 189.46 178.12 189.46" fill="white" fill-opacity="0.7"/>
<path d="M192.38 197.88Q190.10 197.88 188.73 196.52Q187.36 195.17 187.36 192.84L187.36 184.44L189.52 184.44L189.52 192.84Q189.52 194.28 190.29 195.13Q191.06 195.98 192.38 195.98Q193.72 195.98 194.50 195.13Q195.28 194.28 195.28 192.84L195.28 184.44L197.44 184.44L197.44 192.84Q197.44 195.17 196.05 196.52Q194.66 197.88 192.38 197.88" fill="white" fill-opacity="0.7"/>
<path d="M207.33 197.83L206.27 197.83Q204.06 197.83 202.85 196.84Q201.64 195.84 201.64 194.02L203.80 194.02Q203.80 194.93 204.45 195.44Q205.10 195.96 206.27 195.96L207.33 195.96Q208.53 195.96 209.19 195.43Q209.85 194.90 209.85 193.94Q209.85 192.24 208.29 192.02L204.64 191.50Q203.30 191.30 202.55 190.38Q201.81 189.46 201.81 187.94Q201.81 186.22 203 185.23Q204.18 184.25 206.27 184.25L207.33 184.25Q209.25 184.25 210.46 185.20Q211.67 186.14 211.77 187.68L209.58 187.68Q209.54 186.98 208.92 186.53Q208.31 186.07 207.33 186.07L206.27 186.07Q205.17 186.07 204.54 186.58Q203.92 187.08 203.92 187.94Q203.92 189.34 205.19 189.53L208.60 190.01Q211.96 190.49 211.96 193.94Q211.96 195.79 210.75 196.81Q209.54 197.83 207.33 197.83" fill="white" fill-opacity="0.7"/>
<path d="M227.32 197.64L216.04 197.64L216.04 195.67L220.72 195.67L220.72 186.41L216.52 186.41L216.52 184.44L222.88 184.44L222.88 195.67L227.32 195.67L227.32 197.64M221.56 182.06Q220.77 182.06 220.31 181.66Q219.86 181.25 219.86 180.55Q219.86 179.83 220.31 179.41Q220.77 178.99 221.56 178.99Q222.35 178.99 222.81 179.41Q223.26 179.83 223.26 180.55Q223.26 181.25 222.81 181.66Q222.35 182.06 221.56 182.06" fill="white" fill-opacity="0.7"/>
<path d="M232.77 197.64L230.61 197.64L230.61 184.44L232.77 184.44L232.77 186.96L232.79 186.96Q232.96 185.64 233.87 184.92Q234.78 184.20 236.30 184.20Q238.29 184.20 239.46 185.42Q240.64 186.65 240.64 188.76L240.64 197.64L238.48 197.64L238.48 189.14Q238.48 187.63 237.72 186.83Q236.97 186.02 235.67 186.02Q234.33 186.02 233.55 186.86Q232.77 187.70 232.77 189.24" fill="white" fill-opacity="0.7"/>
<path d="MNaN 197.88Q247.67 197.88 246.24 196.48Q244.82 195.07 244.82 192.60L244.82 189.48Q244.82 187.01 246.24 185.60Q247.67 184.20 NaN 184.20Q251.56 184.20 252.72 184.82Q253.89 185.45 254.54 186.58Q255.18 187.70 255.18 189.24L255.18 191.59L246.93 191.59L246.93 192.84Q246.93 194.30 247.77 195.16Q248.61 196.01 NaN 196.01Q251.20 196.01 251.98 195.54Q252.76 195.07 252.93 194.28L255.09 194.28Q254.87 195.94 253.48 196.91Q252.09 197.88 NaN 197.88M246.93 189.24L246.93 189.91L253.07 189.91L253.07 189.24Q253.07 187.68 252.27 186.83Q251.46 185.98 NaN 185.98Q248.54 185.98 247.73 186.83Q246.93 187.68 246.93 189.24" fill="white" fill-opacity="0.7"/>
<path d="M264.93 197.83L263.87 197.83Q261.66 197.83 260.45 196.84Q259.24 195.84 259.24 194.02L261.40 194.02Q261.40 194.93 262.05 195.44Q262.70 195.96 263.87 195.96L264.93 195.96Q266.13 195.96 266.79 195.43Q267.45 194.90 267.45 193.94Q267.45 192.24 265.89 192.02L262.24 191.50Q260.90 191.30 260.15 190.38Q259.41 189.46 259.41 187.94Q259.41 186.22 260.60 185.23Q261.78 184.25 263.87 184.25L264.93 184.25Q266.85 184.25 268.06 185.20Q269.27 186.14 269.37 187.68L267.18 187.68Q267.14 186.98 266.52 186.53Q265.91 186.07 264.93 186.07L263.87 186.07Q262.77 186.07 262.14 186.58Q261.52 187.08 261.52 187.94Q261.52 189.34 262.79 189.53L266.20 190.01Q269.56 190.49 269.56 193.94Q269.56 195.79 268.35 196.81Q267.14 197.83 264.93 197.83" fill="white" fill-opacity="0.7"/>
<path d="M279.33 197.83L278.27 197.83Q276.06 197.83 274.85 196.84Q273.64 195.84 273.64 194.02L275.80 194.02Q275.80 194.93 276.45 195.44Q277.10 195.96 278.27 195.96L279.33 195.96Q280.53 195.96 281.19 195.43Q281.85 194.90 281.85 193.94Q281.85 192.24 280.29 192.02L276.64 191.50Q275.30 191.30 274.55 190.38Q273.81 189.46 273.81 187.94Q273.81 186.22 275 185.23Q276.18 184.25 278.27 184.25L279.33 184.25Q281.25 184.25 282.46 185.20Q283.67 186.14 283.77 187.68L281.58 187.68Q281.54 186.98 280.92 186.53Q280.31 186.07 279.33 186.07L278.27 186.07Q277.17 186.07 276.54 186.58Q275.92 187.08 275.92 187.94Q275.92 189.34 277.19 189.53L280.60 190.01Q283.96 190.49 283.96 193.94Q283.96 195.79 282.75 196.81Q281.54 197.83 279.33 197.83" fill="white" fill-opacity="0.7"/>
<path d="M307.79 197.88Q305.39 197.88 304 196.54Q302.61 195.19 302.61 192.84L302.61 184.92Q302.61 182.57 304 181.22Q305.39 179.88 307.79 179.88Q310.14 179.88 311.54 181.24Q312.93 182.59 312.93 184.92L310.77 184.92Q310.77 183.43 309.99 182.63Q309.21 181.82 307.79 181.82Q306.38 181.82 305.57 182.63Q304.77 183.43 304.77 184.92L304.77 192.84Q304.77 194.33 305.57 195.13Q306.38 195.94 307.79 195.94Q309.21 195.94 309.99 195.13Q310.77 194.33 310.77 192.84L312.93 192.84Q312.93 195.17 311.54 196.52Q310.14 197.88 307.79 197.88" fill="white" fill-opacity="0.7"/>
<path d="M328 197.64L323.92 197.64Q322.17 197.64 321.12 196.62Q320.08 195.60 320.08 193.92L320.08 182.09L315.52 182.09L315.52 180.12L322.24 180.12L322.24 193.92Q322.24 194.74 322.70 195.20Q323.15 195.67 323.92 195.67L328 195.67" fill="white" fill-opacity="0.7"/>
<path d="M336.40 197.83Q334.02 197.83 332.62 196.44Q331.22 195.05 331.22 192.55L331.22 189.53Q331.22 187.01 332.61 185.63Q334 184.25 336.40 184.25Q338.80 184.25 340.19 185.63Q341.58 187.01 341.58 189.53L341.58 192.55Q341.58 195.05 340.18 196.44Q338.78 197.83 336.40 197.83M336.40 195.91Q337.82 195.91 338.62 195.12Q339.42 194.33 339.42 192.79L339.42 189.29Q339.42 187.75 338.62 186.96Q337.82 186.17 336.40 186.17Q335.01 186.17 334.19 186.96Q333.38 187.75 333.38 189.29L333.38 192.79Q333.38 194.33 334.19 195.12Q335.01 195.91 336.40 195.91" fill="white" fill-opacity="0.7"/>
<path d="M350.78 197.88Q348.50 197.88 347.13 196.52Q345.76 195.17 345.76 192.84L345.76 184.44L347.92 184.44L347.92 192.84Q347.92 194.28 348.69 195.13Q349.46 195.98 350.78 195.98Q352.12 195.98 352.90 195.13Q353.68 194.28 353.68 192.84L353.68 184.44L355.84 184.44L355.84 192.84Q355.84 195.17 354.45 196.52Q353.06 197.88 350.78 197.88" fill="white" fill-opacity="0.7"/>
<path d="M364.43 197.88Q362.46 197.88 361.28 196.56Q360.09 195.24 360.09 192.98L360.09 189.12Q360.09 186.84 361.26 185.52Q362.44 184.20 364.43 184.20Q365.92 184.20 366.89 184.94Q367.86 185.69 368.06 186.96L368.08 186.96L368.03 183.96L368.03 180.12L370.19 180.12L370.19 197.64L368.03 197.64L368.03 195.12L368.01 195.12Q367.84 196.42 366.88 197.15Q365.92 197.88 364.43 197.88M365.15 196.01Q366.50 196.01 367.26 195.17Q368.03 194.33 368.03 192.84L368.03 189.24Q368.03 187.75 367.26 186.91Q366.50 186.07 365.15 186.07Q363.78 186.07 363.02 186.78Q362.25 187.49 362.25 189.12L362.25 192.96Q362.25 194.57 363.02 195.29Q363.78 196.01 365.15 196.01" fill="white" fill-opacity="0.7"/>
<path d="M390.21 197.64L388 197.64L392.56 180.12L395.46 180.12L400 197.64L397.82 197.64L396.66 192.98L391.36 192.98L390.21 197.64M393.14 185.74L391.79 191.16L396.21 191.16L394.86 185.76Q394.48 184.22 394.26 183.19Q394.05 182.16 394 181.85Q393.95 182.16 393.74 183.19Q393.52 184.22 393.14 185.74" fill="white" fill-opacity="0.7"/>
<path d="M408.59 197.88Q406.19 197.88 404.75 196.54Q403.31 195.19 403.31 192.84L403.31 189.24Q403.31 186.89 404.75 185.54Q406.19 184.20 408.59 184.20Q410.87 184.20 412.28 185.42Q413.68 186.65 413.75 188.76L411.59 188.76Q411.52 187.49 410.73 186.80Q409.94 186.12 408.59 186.12Q407.18 186.12 406.32 186.92Q405.47 187.73 405.47 189.22L405.47 192.84Q405.47 194.33 406.32 195.14Q407.18 195.96 408.59 195.96Q409.94 195.96 410.73 195.26Q411.52 194.57 411.59 193.32L413.75 193.32Q413.68 195.43 412.28 196.66Q410.87 197.88 408.59 197.88" fill="white" fill-opacity="0.7"/>
<path d="M422.99 197.88Q420.59 197.88 419.15 196.54Q417.71 195.19 417.71 192.84L417.71 189.24Q417.71 186.89 419.15 185.54Q420.59 184.20 422.99 184.20Q425.27 184.20 426.68 185.42Q428.08 186.65 428.15 188.76L425.99 188.76Q425.92 187.49 425.13 186.80Q424.34 186.12 422.99 186.12Q421.58 186.12 420.72 186.92Q419.87 187.73 419.87 189.22L419.87 192.84Q419.87 194.33 420.72 195.14Q421.58 195.96 422.99 195.96Q424.34 195.96 425.13 195.26Q425.92 194.57 425.99 193.32L428.15 193.32Q428.08 195.43 426.68 196.66Q425.27 197.88 422.99 197.88" fill="white" fill-opacity="0.7"/>
<path d="M437.20 197.83Q434.82 197.83 433.42 196.44Q432.02 195.05 432.02 192.55L432.02 189.53Q432.02 187.01 433.41 185.63Q434.80 184.25 437.20 184.25Q439.60 184.25 440.99 185.63Q442.38 187.01 442.38 189.53L442.38 192.55Q442.38 195.05 440.98 196.44Q439.58 197.83 437.20 197.83M437.20 195.91Q438.62 195.91 439.42 195.12Q440.22 194.33 440.22 192.79L440.22 189.29Q440.22 187.75 439.42 186.96Q438.62 186.17 437.20 186.17Q435.81 186.17 434.99 186.96Q434.18 187.75 434.18 189.29L434.18 192.79Q434.18 194.33 434.99 195.12Q435.81 195.91 437.20 195.91" fill="white" fill-opacity="0.7"/>
<path d="M451.58 197.88Q449.30 197.88 447.93 196.52Q446.56 195.17 446.56 192.84L446.56 184.44L448.72 184.44L448.72 192.84Q448.72 194.28 449.49 195.13Q450.26 195.98 451.58 195.98Q452.92 195.98 453.70 195.13Q454.48 194.28 454.48 192.84L454.48 184.44L456.64 184.44L456.64 192.84Q456.64 195.17 455.25 196.52Q453.86 197.88 451.58 197.88" fill="white" fill-opacity="0.7"/>
<path d="M463.17 197.64L461.01 197.64L461.01 184.44L463.17 184.44L463.17 186.96L463.19 186.96Q463.36 185.64 464.27 184.92Q465.18 184.20 466.70 184.20Q468.69 184.20 469.86 185.42Q471.04 186.65 471.04 188.76L471.04 197.64L468.88 197.64L468.88 189.14Q468.88 187.63 468.12 186.83Q467.37 186.02 466.07 186.02Q464.73 186.02 463.95 186.86Q463.17 187.70 463.17 189.24" fill="white" fill-opacity="0.7"/>
<path d="M485.56 197.64L481.72 197.64Q480.09 197.64 479.10 196.69Q478.12 195.74 478.12 194.16L478.12 186.41L474.33 186.41L474.33 184.44L478.12 184.44L478.12 180.72L480.28 180.72L480.28 184.44L485.68 184.44L485.68 186.41L480.28 186.41L480.28 194.16Q480.28 194.83 480.68 195.25Q481.07 195.67 481.72 195.67L485.56 195.67" fill="white" fill-opacity="0.7"/>
<path d="M505.41 197.64L503.20 197.64L507.76 180.12L510.66 180.12L515.20 197.64L513.02 197.64L511.86 192.98L506.56 192.98L505.41 197.64M508.34 185.74L506.99 191.16L511.41 191.16L510.06 185.76Q509.68 184.22 509.46 183.19Q509.25 182.16 509.20 181.85Q509.15 182.16 508.94 183.19Q508.72 184.22 508.34 185.74" fill="white" fill-opacity="0.7"/>
<path d="M520.77 197.64L518.61 197.64L518.61 180.12L524.25 180.12Q526.70 180.12 528.15 181.52Q529.60 182.93 529.60 185.28Q529.60 187.63 528.15 189.04Q526.70 190.44 524.25 190.44L520.77 190.44L520.77 197.64M520.77 182.06L520.77 188.50L524.25 188.50Q525.66 188.50 526.52 187.62Q527.37 186.74 527.37 185.28Q527.37 183.79 526.52 182.93Q525.66 182.06 524.25 182.06" fill="white" fill-opacity="0.7"/>
<path d="M542.68 197.64L533.32 197.64L533.32 195.67L536.90 195.67L536.90 182.09L533.32 182.09L533.32 180.12L542.68 180.12L542.68 182.09L539.10 182.09L539.10 195.67L542.68 195.67" fill="white" fill-opacity="0.7"/>
<path d="M566.80 197.88Q564.47 197.88 563.04 196.48Q561.62 195.07 561.62 192.60L561.62 189.48Q561.62 187.01 563.04 185.60Q564.47 184.20 566.80 184.20Q568.36 184.20 569.52 184.82Q570.69 185.45 571.34 186.58Q571.98 187.70 571.98 189.24L571.98 191.59L563.73 191.59L563.73 192.84Q563.73 194.30 564.57 195.16Q565.41 196.01 566.80 196.01Q568 196.01 568.78 195.54Q569.56 195.07 569.73 194.28L571.89 194.28Q571.67 195.94 570.28 196.91Q568.89 197.88 566.80 197.88M563.73 189.24L563.73 189.91L569.87 189.91L569.87 189.24Q569.87 187.68 569.07 186.83Q568.26 185.98 566.80 185.98Q565.34 185.98 564.53 186.83Q563.73 187.68 563.73 189.24" fill="white" fill-opacity="0.7"/>
<path d="M578.37 197.64L576.21 197.64L576.21 184.44L578.37 184.44L578.37 186.96L578.39 186.96Q578.56 185.64 579.47 184.92Q580.38 184.20 581.90 184.20Q583.89 184.20 585.06 185.42Q586.24 186.65 586.24 188.76L586.24 197.64L584.08 197.64L584.08 189.14Q584.08 187.63 583.32 186.83Q582.57 186.02 581.27 186.02Q579.93 186.02 579.15 186.86Q578.37 187.70 578.37 189.24" fill="white" fill-opacity="0.7"/>
<path d="M594.45 197.88Q592.41 197.88 591.21 196.74Q590.01 195.60 590.01 193.75Q590.01 192.53 590.56 191.62Q591.11 190.70 592.10 190.19Q593.08 189.67 594.35 189.67L598.43 189.67L598.43 188.64Q598.43 186.07 595.62 186.07Q594.38 186.07 593.61 186.53Q592.84 186.98 592.79 187.80L590.63 187.80Q590.75 186.24 592.08 185.22Q593.42 184.20 595.62 184.20Q598.02 184.20 599.31 185.35Q600.59 186.50 600.59 188.57L600.59 197.64L598.46 197.64L598.46 195.24L598.41 195.24Q598.22 196.46 597.18 197.17Q596.15 197.88 594.45 197.88M594.98 196.06Q596.56 196.06 597.50 195.29Q598.43 194.52 598.43 193.20L598.43 191.35L594.59 191.35Q593.54 191.35 592.88 191.99Q592.22 192.62 592.22 193.68Q592.22 194.78 592.95 195.42Q593.68 196.06 594.98 196.06" fill="white" fill-opacity="0.7"/>
<path d="M610.77 197.88Q609.28 197.88 608.32 197.15Q607.36 196.42 607.19 195.12L607.17 195.12L607.17 197.64L605.01 197.64L605.01 180.12L607.17 180.12L607.17 183.96L607.12 186.96L607.14 186.96Q607.34 185.69 608.31 184.94Q609.28 184.20 610.77 184.20Q612.76 184.20 613.94 185.52Q615.11 186.84 615.11 189.12L615.11 192.98Q615.11 195.24 613.94 196.56Q612.76 197.88 610.77 197.88M610.05 196.01Q611.42 196.01 612.18 195.29Q612.95 194.57 612.95 192.96L612.95 189.12Q612.95 187.49 612.18 186.78Q611.42 186.07 610.05 186.07Q608.73 186.07 607.95 186.91Q607.17 187.75 607.17 189.24L607.17 192.84Q607.17 194.33 607.95 195.17Q608.73 196.01 610.05 196.01" fill="white" fill-opacity="0.7"/>
<path d="M630.40 197.64L626.32 197.64Q624.57 197.64 623.52 196.62Q622.48 195.60 622.48 193.92L622.48 182.09L617.92 182.09L617.92 180.12L624.64 180.12L624.64 193.92Q624.64 194.74 625.10 195.20Q625.55 195.67 626.32 195.67L630.40 195.67" fill="white" fill-opacity="0.7"/>
<path d="M638.80 197.88Q636.47 197.88 635.04 196.48Q633.62 195.07 633.62 192.60L633.62 189.48Q633.62 187.01 635.04 185.60Q636.47 184.20 638.80 184.20Q640.36 184.20 641.52 184.82Q642.69 185.45 643.34 186.58Q643.98 187.70 643.98 189.24L643.98 191.59L635.73 191.59L635.73 192.84Q635.73 194.30 636.57 195.16Q637.41 196.01 638.80 196.01Q640 196.01 640.78 195.54Q641.56 195.07 641.73 194.28L643.89 194.28Q643.67 195.94 642.28 196.91Q640.89 197.88 638.80 197.88M635.73 189.24L635.73 189.91L641.87 189.91L641.87 189.24Q641.87 187.68 641.07 186.83Q640.26 185.98 638.80 185.98Q637.34 185.98 636.53 186.83Q635.73 187.68 635.73 189.24" fill="white" fill-opacity="0.7"/>
<path d="M653.73 197.83L652.67 197.83Q650.46 197.83 649.25 196.84Q648.04 195.84 648.04 194.02L650.20 194.02Q650.20 194.93 650.85 195.44Q651.50 195.96 652.67 195.96L653.73 195.96Q654.93 195.96 655.59 195.43Q656.25 194.90 656.25 193.94Q656.25 192.24 654.69 192.02L651.04 191.50Q649.70 191.30 648.95 190.38Q648.21 189.46 648.21 187.94Q648.21 186.22 649.40 185.23Q650.58 184.25 652.67 184.25L653.73 184.25Q655.65 184.25 656.86 185.20Q658.07 186.14 658.17 187.68L655.98 187.68Q655.94 186.98 655.32 186.53Q654.71 186.07 653.73 186.07L652.67 186.07Q651.57 186.07 650.94 186.58Q650.32 187.08 650.32 187.94Q650.32 189.34 651.59 189.53L655 190.01Q658.36 190.49 658.36 193.94Q658.36 195.79 657.15 196.81Q655.94 197.83 653.73 197.83" fill="white" fill-opacity="0.7"/>
<path d="M681.33 201.96L679.07 201.96L681.02 196.82L676.10 184.44L678.42 184.44L681.54 192.60Q681.74 193.08 681.90 193.61Q682.07 194.14 682.14 194.52Q682.22 194.14 682.38 193.61Q682.55 193.08 682.72 192.60L685.62 184.44L687.90 184.44" fill="white" fill-opacity="0.7"/>
<path d="M696.40 197.83Q694.02 197.83 692.62 196.44Q691.22 195.05 691.22 192.55L691.22 189.53Q691.22 187.01 692.61 185.63Q694 184.25 696.40 184.25Q698.80 184.25 700.19 185.63Q701.58 187.01 701.58 189.53L701.58 192.55Q701.58 195.05 700.18 196.44Q698.78 197.83 696.40 197.83M696.40 195.91Q697.82 195.91 698.62 195.12Q699.42 194.33 699.42 192.79L699.42 189.29Q699.42 187.75 698.62 186.96Q697.82 186.17 696.40 186.17Q695.01 186.17 694.19 186.96Q693.38 187.75 693.38 189.29L693.38 192.79Q693.38 194.33 694.19 195.12Q695.01 195.91 696.40 195.91" fill="white" fill-opacity="0.7"/>
<path d="M710.78 197.88Q708.50 197.88 707.13 196.52Q705.76 195.17 705.76 192.84L705.76 184.44L707.92 184.44L707.92 192.84Q707.92 194.28 708.69 195.13Q709.46 195.98 710.78 195.98Q712.12 195.98 712.90 195.13Q713.68 194.28 713.68 192.84L713.68 184.44L715.84 184.44L715.84 192.84Q715.84 195.17 714.45 196.52Q713.06 197.88 710.78 197.88" fill="white" fill-opacity="0.7"/>
<path d="M744.76 197.64L740.92 197.64Q739.29 197.64 738.30 196.69Q737.32 195.74 737.32 194.16L737.32 186.41L733.53 186.41L733.53 184.44L737.32 184.44L737.32 180.72L739.48 180.72L739.48 184.44L744.88 184.44L744.88 186.41L739.48 186.41L739.48 194.16Q739.48 194.83 739.88 195.25Q740.27 195.67 740.92 195.67L744.76 195.67" fill="white" fill-opacity="0.7"/>
<path d="M754 197.83Q751.62 197.83 750.22 196.44Q748.82 195.05 748.82 192.55L748.82 189.53Q748.82 187.01 750.21 185.63Q751.60 184.25 754 184.25Q756.40 184.25 757.79 185.63Q759.18 187.01 759.18 189.53L759.18 192.55Q759.18 195.05 757.78 196.44Q756.38 197.83 754 197.83M754 195.91Q755.42 195.91 756.22 195.12Q757.02 194.33 757.02 192.79L757.02 189.29Q757.02 187.75 756.22 186.96Q755.42 186.17 754 186.17Q752.61 186.17 751.79 186.96Q750.98 187.75 750.98 189.29L750.98 192.79Q750.98 194.33 751.79 195.12Q752.61 195.91 754 195.91" fill="white" fill-opacity="0.7"/>
<path d="M780.45 197.64L778.29 197.64L778.29 184.44L780.45 184.44L780.45 186.96L780.50 186.96Q780.66 185.69 781.58 184.94Q782.49 184.20 784.02 184.20Q786.09 184.20 787.20 185.44Q788.32 186.67 788.32 188.95L788.32 190.08L786.16 190.08L786.16 188.95Q786.16 186.07 783.35 186.07Q781.94 186.07 781.19 186.89Q780.45 187.70 780.45 189.24" fill="white" fill-opacity="0.7"/>
<path d="M797.20 197.88Q794.87 197.88 793.44 196.48Q792.02 195.07 792.02 192.60L792.02 189.48Q792.02 187.01 793.44 185.60Q794.87 184.20 797.20 184.20Q798.76 184.20 799.92 184.82Q801.09 185.45 801.74 186.58Q802.38 187.70 802.38 189.24L802.38 191.59L794.13 191.59L794.13 192.84Q794.13 194.30 794.97 195.16Q795.81 196.01 797.20 196.01Q798.40 196.01 799.18 195.54Q799.96 195.07 800.13 194.28L802.29 194.28Q802.07 195.94 800.68 196.91Q799.29 197.88 797.20 197.88M794.13 189.24L794.13 189.91L800.27 189.91L800.27 189.24Q800.27 187.68 799.47 186.83Q798.66 185.98 797.20 185.98Q795.74 185.98 794.93 186.83Q794.13 187.68 794.13 189.24" fill="white" fill-opacity="0.7"/>
<path d="M816.76 197.64L812.92 197.64Q811.29 197.64 810.30 196.69Q809.32 195.74 809.32 194.16L809.32 186.41L805.53 186.41L805.53 184.44L809.32 184.44L809.32 180.72L811.48 180.72L811.48 184.44L816.88 184.44L816.88 186.41L811.48 186.41L811.48 194.16Q811.48 194.83 811.88 195.25Q812.27 195.67 812.92 195.67L816.76 195.67" fill="white" fill-opacity="0.7"/>
<path d="M823.65 197.64L821.49 197.64L821.49 184.44L823.65 184.44L823.65 186.96L823.70 186.96Q823.86 185.69 824.78 184.94Q825.69 184.20 827.22 184.20Q829.29 184.20 830.40 185.44Q831.52 186.67 831.52 188.95L831.52 190.08L829.36 190.08L829.36 188.95Q829.36 186.07 826.55 186.07Q825.14 186.07 824.39 186.89Q823.65 187.70 823.65 189.24" fill="white" fill-opacity="0.7"/>
<path d="M846.52 197.64L835.24 197.64L835.24 195.67L839.92 195.67L839.92 186.41L835.72 186.41L835.72 184.44L842.08 184.44L842.08 195.67L846.52 195.67L846.52 197.64M840.76 182.06Q839.97 182.06 839.51 181.66Q839.06 181.25 839.06 180.55Q839.06 179.83 839.51 179.41Q839.97 178.99 840.76 178.99Q841.55 178.99 842.01 179.41Q842.46 179.83 842.46 180.55Q842.46 181.25 842.01 181.66Q841.55 182.06 840.76 182.06" fill="white" fill-opacity="0.7"/>
<path d="M854.80 197.88Q852.47 197.88 851.04 196.48Q849.62 195.07 849.62 192.60L849.62 189.48Q849.62 187.01 851.04 185.60Q852.47 184.20 854.80 184.20Q856.36 184.20 857.52 184.82Q858.69 185.45 859.34 186.58Q859.98 187.70 859.98 189.24L859.98 191.59L851.73 191.59L851.73 192.84Q851.73 194.30 852.57 195.16Q853.41 196.01 854.80 196.01Q856 196.01 856.78 195.54Q857.56 195.07 857.73 194.28L859.89 194.28Q859.67 195.94 858.28 196.91Q856.89 197.88 854.80 197.88M851.73 189.24L851.73 189.91L857.87 189.91L857.87 189.24Q857.87 187.68 857.07 186.83Q856.26 185.98 854.80 185.98Q853.34 185.98 852.53 186.83Q851.73 187.68 851.73 189.24" fill="white" fill-opacity="0.7"/>
<path d="M870.62 197.64L867.78 197.64L863.30 184.44L865.62 184.44L868.50 193.32Q868.77 194.11 868.96 194.84Q869.15 195.58 869.25 195.98Q869.37 195.58 869.54 194.84Q869.70 194.11 869.94 193.32L872.82 184.44L875.10 184.44" fill="white" fill-opacity="0.7"/>
<path d="M883.60 197.88Q881.27 197.88 879.84 196.48Q878.42 195.07 878.42 192.60L878.42 189.48Q878.42 187.01 879.84 185.60Q881.27 184.20 883.60 184.20Q885.16 184.20 886.32 184.82Q887.49 185.45 888.14 186.58Q888.78 187.70 888.78 189.24L888.78 191.59L880.53 191.59L880.53 192.84Q880.53 194.30 881.37 195.16Q882.21 196.01 883.60 196.01Q884.80 196.01 885.58 195.54Q886.36 195.07 886.53 194.28L888.69 194.28Q888.47 195.94 887.08 196.91Q885.69 197.88 883.60 197.88M880.53 189.24L880.53 189.91L886.67 189.91L886.67 189.24Q886.67 187.68 885.87 186.83Q885.06 185.98 883.60 185.98Q882.14 185.98 881.33 186.83Q880.53 187.68 880.53 189.24" fill="white" fill-opacity="0.7"/>
<path d="M918.52 197.64L907.24 197.64L907.24 195.67L911.92 195.67L911.92 186.41L907.72 186.41L907.72 184.44L914.08 184.44L914.08 195.67L918.52 195.67L918.52 197.64M912.76 182.06Q911.97 182.06 911.51 181.66Q911.06 181.25 911.06 180.55Q911.06 179.83 911.51 179.41Q911.97 178.99 912.76 178.99Q913.55 178.99 914.01 179.41Q914.46 179.83 914.46 180.55Q914.46 181.25 914.01 181.66Q913.55 182.06 912.76 182.06" fill="white" fill-opacity="0.7"/>
<path d="M923.97 197.64L921.81 197.64L921.81 184.44L923.97 184.44L923.97 186.96L923.99 186.96Q924.16 185.64 925.07 184.92Q925.98 184.20 927.50 184.20Q929.49 184.20 930.66 185.42Q931.84 186.65 931.84 188.76L931.84 197.64L929.68 197.64L929.68 189.14Q929.68 187.63 928.92 186.83Q928.17 186.02 926.87 186.02Q925.53 186.02 924.75 186.86Q923.97 187.70 923.97 189.24" fill="white" fill-opacity="0.7"/>
<path d="M941.32 197.64L939.16 197.64L939.16 188.21L935.32 188.21L935.32 186.24L939.16 186.24L939.16 183.48Q939.16 181.92 940.14 181.02Q941.13 180.12 942.86 180.12L946.72 180.12L946.72 182.09L942.86 182.09Q941.32 182.09 941.32 183.48L941.32 186.24L946.72 186.24L946.72 188.21L941.32 188.21" fill="white" fill-opacity="0.7"/>
<path d="M955.60 197.83Q953.22 197.83 951.82 196.44Q950.42 195.05 950.42 192.55L950.42 189.53Q950.42 187.01 951.81 185.63Q953.20 184.25 955.60 184.25Q958 184.25 959.39 185.63Q960.78 187.01 960.78 189.53L960.78 192.55Q960.78 195.05 959.38 196.44Q957.98 197.83 955.60 197.83M955.60 195.91Q957.02 195.91 957.82 195.12Q958.62 194.33 958.62 192.79L958.62 189.29Q958.62 187.75 957.82 186.96Q957.02 186.17 955.60 186.17Q954.21 186.17 953.39 186.96Q952.58 187.75 952.58 189.29L952.58 192.79Q952.58 194.33 953.39 195.12Q954.21 195.91 955.60 195.91" fill="white" fill-opacity="0.7"/>
<path d="M967.65 197.64L965.49 197.64L965.49 184.44L967.65 184.44L967.65 186.96L967.70 186.96Q967.86 185.69 968.78 184.94Q969.69 184.20 971.22 184.20Q973.29 184.20 974.40 185.44Q975.52 186.67 975.52 188.95L975.52 190.08L973.36 190.08L973.36 188.95Q973.36 186.07 970.55 186.07Q969.14 186.07 968.39 186.89Q967.65 187.70 967.65 189.24" fill="white" fill-opacity="0.7"/>
<path d="M980.66 197.64L978.64 197.64L978.64 184.44L980.51 184.44L980.51 186.19L980.56 186.19Q980.68 185.30 981.27 184.75Q981.86 184.20 982.77 184.20Q983.63 184.20 984.23 184.70Q984.83 185.21 985.10 186.07L985.12 186.07Q985.29 185.21 985.88 184.70Q986.46 184.20 987.38 184.20Q988.65 184.20 989.40 185.15Q990.16 186.10 990.16 187.61L990.16 197.64L988.14 197.64L988.14 187.58Q988.14 186.79 987.76 186.32Q987.38 185.86 986.70 185.86Q986.06 185.86 985.67 186.31Q985.29 186.77 985.29 187.56L985.29 197.64L983.51 197.64L983.51 187.58Q983.51 186.79 983.13 186.32Q982.74 185.86 982.10 185.86Q981.42 185.86 981.04 186.31Q980.66 186.77 980.66 187.56" fill="white" fill-opacity="0.7"/>
<path d="M997.65 197.88Q995.61 197.88 994.41 196.74Q993.21 195.60 993.21 193.75Q993.21 192.53 993.76 191.62Q994.31 190.70 995.30 190.19Q996.28 189.67 997.55 189.67L1001.63 189.67L1001.63 188.64Q1001.63 186.07 998.82 186.07Q997.58 186.07 996.81 186.53Q996.04 186.98 995.99 187.80L993.83 187.80Q993.95 186.24 995.28 185.22Q996.62 184.20 998.82 184.20Q1001.22 184.20 1002.51 185.35Q1003.79 186.50 1003.79 188.57L1003.79 197.64L1001.66 197.64L1001.66 195.24L1001.61 195.24Q1001.42 196.46 1000.38 197.17Q999.35 197.88 997.65 197.88M998.18 196.06Q999.76 196.06 1000.70 195.29Q1001.63 194.52 1001.63 193.20L1001.63 191.35L997.79 191.35Q996.74 191.35 996.08 191.99Q995.42 192.62 995.42 193.68Q995.42 194.78 996.15 195.42Q996.88 196.06 998.18 196.06" fill="white" fill-opacity="0.7"/>
<path d="M1018.36 197.64L1014.52 197.64Q1012.89 197.64 1011.90 196.69Q1010.92 195.74 1010.92 194.16L1010.92 186.41L1007.13 186.41L1007.13 184.44L1010.92 184.44L1010.92 180.72L1013.08 180.72L1013.08 184.44L1018.48 184.44L1018.48 186.41L1013.08 186.41L1013.08 194.16Q1013.08 194.83 1013.48 195.25Q1013.87 195.67 1014.52 195.67L1018.36 195.67" fill="white" fill-opacity="0.7"/>
<path d="M1033.72 197.64L1022.44 197.64L1022.44 195.67L1027.12 195.67L1027.12 186.41L1022.92 186.41L1022.92 184.44L1029.28 184.44L1029.28 195.67L1033.72 195.67L1033.72 197.64M1027.96 182.06Q1027.17 182.06 1026.71 181.66Q1026.26 181.25 1026.26 180.55Q1026.26 179.83 1026.71 179.41Q1027.17 178.99 1027.96 178.99Q1028.75 178.99 1029.21 179.41Q1029.66 179.83 1029.66 180.55Q1029.66 181.25 1029.21 181.66Q1028.75 182.06 1027.96 182.06" fill="white" fill-opacity="0.7"/>
<path d="M1042 197.83Q1039.62 197.83 1038.22 196.44Q1036.82 195.05 1036.82 192.55L1036.82 189.53Q1036.82 187.01 1038.21 185.63Q1039.60 184.25 1042 184.25Q1044.40 184.25 1045.79 185.63Q1047.18 187.01 1047.18 189.53L1047.18 192.55Q1047.18 195.05 1045.78 196.44Q1044.38 197.83 1042 197.83M1042 195.91Q1043.42 195.91 1044.22 195.12Q1045.02 194.33 1045.02 192.79L1045.02 189.29Q1045.02 187.75 1044.22 186.96Q1043.42 186.17 1042 186.17Q1040.61 186.17 1039.79 186.96Q1038.98 187.75 1038.98 189.29L1038.98 192.79Q1038.98 194.33 1039.79 195.12Q1040.61 195.91 1042 195.91" fill="white" fill-opacity="0.7"/>
<path d="M1053.57 197.64L1051.41 197.64L1051.41 184.44L1053.57 184.44L1053.57 186.96L1053.59 186.96Q1053.76 185.64 1054.67 184.92Q1055.58 184.20 1057.10 184.20Q1059.09 184.20 1060.26 185.42Q1061.44 186.65 1061.44 188.76L1061.44 197.64L1059.28 197.64L1059.28 189.14Q1059.28 187.63 1058.52 186.83Q1057.77 186.02 1056.47 186.02Q1055.13 186.02 1054.35 186.86Q1053.57 187.70 1053.57 189.24" fill="white" fill-opacity="0.7"/>
<path d="M1084.05 197.88Q1082.01 197.88 1080.81 196.74Q1079.61 195.60 1079.61 193.75Q1079.61 192.53 1080.16 191.62Q1080.71 190.70 1081.70 190.19Q1082.68 189.67 1083.95 189.67L1088.03 189.67L1088.03 188.64Q1088.03 186.07 1085.22 186.07Q1083.98 186.07 1083.21 186.53Q1082.44 186.98 1082.39 187.80L1080.23 187.80Q1080.35 186.24 1081.68 185.22Q1083.02 184.20 1085.22 184.20Q1087.62 184.20 1088.91 185.35Q1090.19 186.50 1090.19 188.57L1090.19 197.64L1088.06 197.64L1088.06 195.24L1088.01 195.24Q1087.82 196.46 1086.78 197.17Q1085.75 197.88 1084.05 197.88M1084.58 196.06Q1086.16 196.06 1087.10 195.29Q1088.03 194.52 1088.03 193.20L1088.03 191.35L1084.19 191.35Q1083.14 191.35 1082.48 191.99Q1081.82 192.62 1081.82 193.68Q1081.82 194.78 1082.55 195.42Q1083.28 196.06 1084.58 196.06" fill="white" fill-opacity="0.7"/>
<path d="M1100.37 197.88Q1098.88 197.88 1097.92 197.15Q1096.96 196.42 1096.79 195.12L1096.77 195.12L1096.77 197.64L1094.61 197.64L1094.61 180.12L1096.77 180.12L1096.77 183.96L1096.72 186.96L1096.74 186.96Q1096.94 185.69 1097.91 184.94Q1098.88 184.20 1100.37 184.20Q1102.36 184.20 1103.54 185.52Q1104.71 186.84 1104.71 189.12L1104.71 192.98Q1104.71 195.24 1103.54 196.56Q1102.36 197.88 1100.37 197.88M1099.65 196.01Q1101.02 196.01 1101.78 195.29Q1102.55 194.57 1102.55 192.96L1102.55 189.12Q1102.55 187.49 1101.78 186.78Q1101.02 186.07 1099.65 186.07Q1098.33 186.07 1097.55 186.91Q1096.77 187.75 1096.77 189.24L1096.77 192.84Q1096.77 194.33 1097.55 195.17Q1098.33 196.01 1099.65 196.01" fill="white" fill-opacity="0.7"/>
<path d="M1114 197.83Q1111.62 197.83 1110.22 196.44Q1108.82 195.05 1108.82 192.55L1108.82 189.53Q1108.82 187.01 1110.21 185.63Q1111.60 184.25 1114 184.25Q1116.40 184.25 1117.79 185.63Q1119.18 187.01 1119.18 189.53L1119.18 192.55Q1119.18 195.05 1117.78 196.44Q1116.38 197.83 1114 197.83M1114 195.91Q1115.42 195.91 1116.22 195.12Q1117.02 194.33 1117.02 192.79L1117.02 189.29Q1117.02 187.75 1116.22 186.96Q1115.42 186.17 1114 186.17Q1112.61 186.17 1111.79 186.96Q1110.98 187.75 1110.98 189.29L1110.98 192.79Q1110.98 194.33 1111.79 195.12Q1112.61 195.91 1114 195.91" fill="white" fill-opacity="0.7"/>
<path d="M1128.38 197.88Q1126.10 197.88 1124.73 196.52Q1123.36 195.17 1123.36 192.84L1123.36 184.44L1125.52 184.44L1125.52 192.84Q1125.52 194.28 1126.29 195.13Q1127.06 195.98 1128.38 195.98Q1129.72 195.98 1130.50 195.13Q1131.28 194.28 1131.28 192.84L1131.28 184.44L1133.44 184.44L1133.44 192.84Q1133.44 195.17 1132.05 196.52Q1130.66 197.88 1128.38 197.88" fill="white" fill-opacity="0.7"/>
<path d="M1147.96 197.64L1144.12 197.64Q1142.49 197.64 1141.50 196.69Q1140.52 195.74 1140.52 194.16L1140.52 186.41L1136.73 186.41L1136.73 184.44L1140.52 184.44L1140.52 180.72L1142.68 180.72L1142.68 184.44L1148.08 184.44L1148.08 186.41L1142.68 186.41L1142.68 194.16Q1142.68 194.83 1143.08 195.25Q1143.47 195.67 1144.12 195.67L1147.96 195.67" fill="white" fill-opacity="0.7"/>
<path d="M76.05 229.88Q74.01 229.88 72.81 228.74Q71.61 227.60 71.61 225.75Q71.61 224.53 72.16 223.62Q72.71 222.70 73.70 222.19Q74.68 221.67 75.95 221.67L80.03 221.67L80.03 220.64Q80.03 218.07 77.22 218.07Q75.98 218.07 75.21 218.53Q74.44 218.98 74.39 219.80L72.23 219.80Q72.35 218.24 73.68 217.22Q75.02 216.20 77.22 216.20Q79.62 216.20 80.91 217.35Q82.19 218.50 82.19 220.57L82.19 229.64L80.06 229.64L80.06 227.24L80.01 227.24Q79.82 228.46 78.78 229.17Q77.75 229.88 76.05 229.88M76.58 228.06Q78.16 228.06 79.10 227.29Q80.03 226.52 80.03 225.20L80.03 223.35L76.19 223.35Q75.14 223.35 74.48 223.99Q73.82 224.62 73.82 225.68Q73.82 226.78 74.55 227.42Q75.28 228.06 76.58 228.06" fill="white" fill-opacity="0.7"/>
<path d="M91.79 229.88Q89.39 229.88 87.95 228.54Q86.51 227.19 86.51 224.84L86.51 221.24Q86.51 218.89 87.95 217.54Q89.39 216.20 91.79 216.20Q94.07 216.20 95.48 217.42Q96.88 218.65 96.95 220.76L94.79 220.76Q94.72 219.49 93.93 218.80Q93.14 218.12 91.79 218.12Q90.38 218.12 89.52 218.92Q88.67 219.73 88.67 221.22L88.67 224.84Q88.67 226.33 89.52 227.14Q90.38 227.96 91.79 227.96Q93.14 227.96 93.93 227.26Q94.72 226.57 94.79 225.32L96.95 225.32Q96.88 227.43 95.48 228.66Q94.07 229.88 91.79 229.88" fill="white" fill-opacity="0.7"/>
<path d="M106.19 229.88Q103.79 229.88 102.35 228.54Q100.91 227.19 100.91 224.84L100.91 221.24Q100.91 218.89 102.35 217.54Q103.79 216.20 106.19 216.20Q108.47 216.20 109.88 217.42Q111.28 218.65 111.35 220.76L109.19 220.76Q109.12 219.49 108.33 218.80Q107.54 218.12 106.19 218.12Q104.78 218.12 103.92 218.92Q103.07 219.73 103.07 221.22L103.07 224.84Q103.07 226.33 103.92 227.14Q104.78 227.96 106.19 227.96Q107.54 227.96 108.33 227.26Q109.12 226.57 109.19 225.32L111.35 225.32Q111.28 227.43 109.88 228.66Q108.47 229.88 106.19 229.88" fill="white" fill-opacity="0.7"/>
<path d="M120.40 229.83Q118.02 229.83 116.62 228.44Q115.22 227.05 115.22 224.55L115.22 221.53Q115.22 219.01 116.61 217.63QNaN 216.25 120.40 216.25Q122.80 216.25 124.19 217.63Q125.58 219.01 125.58 221.53L125.58 224.55Q125.58 227.05 124.18 228.44Q122.78 229.83 120.40 229.83M120.40 227.91Q121.82 227.91 122.62 227.12Q123.42 226.33 123.42 224.79L123.42 221.29Q123.42 219.75 122.62 218.96Q121.82 218.17 120.40 218.17Q119.01 218.17 118.19 218.96Q117.38 219.75 117.38 221.29L117.38 224.79Q117.38 226.33 118.19 227.12Q119.01 227.91 120.40 227.91" fill="white" fill-opacity="0.7"/>
<path d="M134.78 229.88Q132.50 229.88 131.13 228.52Q129.76 227.17 129.76 224.84L129.76 216.44L131.92 216.44L131.92 224.84Q131.92 226.28 132.69 227.13Q133.46 227.98 134.78 227.98Q136.12 227.98 136.90 227.13Q137.68 226.28 137.68 224.84L137.68 216.44L139.84 216.44L139.84 224.84Q139.84 227.17 138.45 228.52Q137.06 229.88 134.78 229.88" fill="white" fill-opacity="0.7"/>
<path d="M146.37 229.64L144.21 229.64L144.21 216.44L146.37 216.44L146.37 218.96L146.39 218.96Q146.56 217.64 147.47 216.92Q148.38 216.20 149.90 216.20Q151.89 216.20 153.06 217.42Q154.24 218.65 154.24 220.76L154.24 229.64L152.08 229.64L152.08 221.14Q152.08 219.63 151.32 218.83Q150.57 218.02 149.27 218.02Q147.93 218.02 147.15 218.86Q146.37 219.70 146.37 221.24" fill="white" fill-opacity="0.7"/>
<path d="M168.76 229.64L164.92 229.64Q163.29 229.64 162.30 228.69Q161.32 227.74 161.32 226.16L161.32 218.41L157.53 218.41L157.53 216.44L161.32 216.44L161.32 212.72L163.48 212.72L163.48 216.44L168.88 216.44L168.88 218.41L163.48 218.41L163.48 226.16Q163.48 226.83 163.88 227.25Q164.27 227.67 164.92 227.67L168.76 227.67" fill="white" fill-opacity="0.7"/>
<path d="M178.53 229.83L177.47 229.83Q175.26 229.83 174.05 228.84Q172.84 227.84 172.84 226.02LNaN 226.02QNaN 226.93 175.65 227.44Q176.30 227.96 177.47 227.96L178.53 227.96Q179.73 227.96 180.39 227.43Q181.05 226.90 181.05 225.94Q181.05 224.24 179.49 224.02L175.84 223.50Q174.50 223.30 173.75 222.38Q173.01 221.46 173.01 219.94Q173.01 218.22 174.20 217.23Q175.38 216.25 177.47 216.25L178.53 216.25Q180.45 216.25 181.66 217.20Q182.87 218.14 182.97 219.68L180.78 219.68Q180.74 218.98 180.12 218.53Q179.51 218.07 178.53 218.07L177.47 218.07Q176.37 218.07 175.74 218.58Q175.12 219.08 175.12 219.94Q175.12 221.34 176.39 221.53L179.80 222.01Q183.16 222.49 183.16 225.94Q183.16 227.79 181.95 228.81Q180.74 229.83 178.53 229.83" fill="white" fill-opacity="0.7"/>
<path d="M97.14 136.06L84.37 136.06L66.42 65.98L76.21 65.98L87.82 113.21Q88.98 117.72 89.79 121.90Q90.61 126.08 90.99 128.28Q91.28 126.08 92.19 121.85Q93.10 117.63 94.16 113.12L105.39 65.98L115.18 65.98L97.14 136.06M148.40 137.02Q138.80 137.02 133.23 131.45Q127.66 125.88 127.66 115.71L127.66 86.24Q127.66 76.16 133.23 70.59Q138.80 65.02 148.40 65.02Q158 65.02 163.57 70.54Q169.14 76.06 169.14 86.24L169.14 115.71Q169.14 125.88 163.57 131.45Q158 137.02 148.40 137.02M148.40 128.57Q153.78 128.57 156.70 125.50Q159.63 122.43 159.63 116.67L159.63 85.28Q159.63 79.61 156.75 76.54Q153.87 73.47 148.40 73.47Q142.93 73.47 140.05 76.54Q137.17 79.61 137.17 85.28L137.17 116.67Q137.17 122.43 140.10 125.50Q143.02 128.57 148.40 128.57M194.38 136.06L185.46 136.06L185.46 65.98L197.74 65.98L218.67 125.12Q218.38 122.62 218.14 118.92Q217.90 115.23 217.76 111.24Q217.62 107.26 217.62 103.71L217.62 65.98L226.64 65.98L226.64 136.06L214.26 136.06L193.52 76.92Q193.71 79.42 193.90 83.02Q194.10 86.62 194.24 90.56Q194.38 94.49 194.38 97.95L194.38 136.06M248.91 136.06L239.22 136.06L257.36 65.98L269.94 65.98L287.98 136.06L278.29 136.06L273.87 117.82L253.33 117.82L248.91 136.06M260.34 88.92L255.25 109.95L271.95 109.95L266.96 89.02Q265.52 83.26 264.66 79.23Q263.79 75.20 263.60 73.76Q263.41 75.20 262.54 79.23Q261.68 83.26 260.34 88.92M321.58 137.02Q311.89 137.02 306.18 131.60Q300.46 126.17 300.46 116.67L300.46 85.28Q300.46 75.87 306.18 70.44Q311.89 65.02 321.58 65.02Q331.18 65.02 336.90 70.49Q342.61 75.96 342.61 85.28L333.10 85.28Q333.10 79.61 330.03 76.54Q326.96 73.47 321.58 73.47Q316.11 73.47 313.04 76.54Q309.97 79.61 309.97 85.28L309.97 116.67Q309.97 122.43 313.04 125.50Q316.11 128.57 321.58 128.57Q326.96 128.57 330.03 125.50Q333.10 122.43 333.10 116.67L333.10 107.55L319.47 107.55L319.47 99.10L342.61 99.10L342.61 116.67Q342.61 126.08 336.90 131.55Q331.18 137.02 321.58 137.02M400.11 136.06L359.31 136.06L359.31 65.98L400.11 65.98L400.11 74.52L368.72 74.52L368.72 95.36L396.75 95.36L396.75 103.61L368.72 103.61L368.72 127.52L400.11 127.52L400.11 136.06M479.31 136.06L469.62 136.06L487.76 65.98L500.34 65.98L518.38 136.06L508.69 136.06L504.27 117.82L483.73 117.82L479.31 136.06M490.74 88.92L485.65 109.95L502.35 109.95L497.36 89.02Q495.92 83.26 495.06 79.23Q494.19 75.20 NaN 73.76Q493.81 75.20 492.94 79.23Q492.08 83.26 490.74 88.92M552.37 137.02Q542.67 137.02 536.96 131.60Q531.25 126.17 531.25 116.67L531.25 85.28Q531.25 75.87 536.96 70.44Q542.67 65.02 552.37 65.02Q561.97 65.02 567.68 70.49Q573.39 75.96 573.39 85.28L563.89 85.28Q563.89 79.61 560.82 76.54Q557.74 73.47 552.37 73.47Q546.90 73.47 543.82 76.54Q540.75 79.61 540.75 85.28L540.75 116.67Q540.75 122.43 543.82 125.50Q546.90 128.57 552.37 128.57Q557.74 128.57 560.82 125.50Q563.89 122.43 563.89 116.67L573.39 116.67Q573.39 126.08 567.68 131.55Q561.97 137.02 552.37 137.02M609.97 137.02Q600.27 137.02 594.56 131.60Q588.85 126.17 588.85 116.67L588.85 85.28Q588.85 75.87 594.56 70.44Q600.27 65.02 609.97 65.02Q619.57 65.02 625.28 70.49Q630.99 75.96 630.99 85.28L621.49 85.28Q621.49 79.61 618.42 76.54Q615.34 73.47 609.97 73.47Q604.50 73.47 601.42 76.54Q598.35 79.61 598.35 85.28L598.35 116.67Q598.35 122.43 601.42 125.50Q604.50 128.57 609.97 128.57Q615.34 128.57 618.42 125.50Q621.49 122.43 621.49 116.67L630.99 116.67Q630.99 126.08 625.28 131.55Q619.57 137.02 609.97 137.02M666.80 137.02Q657.20 137.02 651.63 131.45Q646.06 125.88 646.06 115.71L646.06 86.24Q646.06 76.16 651.63 70.59Q657.20 65.02 666.80 65.02Q676.40 65.02 681.97 70.54Q687.54 76.06 687.54 86.24L687.54 115.71Q687.54 125.88 681.97 131.45Q676.40 137.02 666.80 137.02M666.80 128.57Q672.18 128.57 675.10 125.50Q678.03 122.43 678.03 116.67L678.03 85.28Q678.03 79.61 675.15 76.54Q672.27 73.47 666.80 73.47Q661.33 73.47 658.45 76.54Q655.57 79.61 655.57 85.28L655.57 116.67Q655.57 122.43 658.50 125.50Q661.42 128.57 666.80 128.57M724.40 137.02Q714.51 137.02 709.18 131.55Q703.86 126.08 703.86 116.67L703.86 65.98L713.36 65.98L713.36 116.67Q713.36 122.24 716.10 125.40Q718.83 128.57 724.40 128.57Q729.87 128.57 732.70 125.40Q735.54 122.24 735.54 116.67L735.54 65.98L745.04 65.98L745.04 116.67Q745.04 126.17 739.71 131.60Q734.38 137.02 724.40 137.02M770.38 136.06L761.46 136.06L761.46 65.98L773.74 65.98L794.67 125.12Q794.38 122.62 794.14 118.92Q793.90 115.23 793.76 111.24Q793.62 107.26 793.62 103.71L793.62 65.98L802.64 65.98L802.64 136.06L790.26 136.06L769.52 76.92Q769.71 79.42 769.90 83.02Q770.10 86.62 770.24 90.56Q770.38 94.49 770.38 97.95L770.38 136.06M844.40 136.06L834.90 136.06L834.90 74.62L815.89 74.62L815.89 65.98L863.31 65.98L863.31 74.62L844.40 74.62" fill="url(#paint2_linear_0_1)"/>
<g id="Group 1">
<rect id="Rectangle 1" x="26" y="168" width="12" height="184" rx="5" fill="url(#paint3_linear_0_1)" fill-opacity="0.9"/>
</g>
<g id="Group 1_2">
<rect id="Rectangle 2" x="26" y="38" width="12" height="119" rx="5" fill="url(#paint4_linear_0_1)" fill-opacity="0.9"/>
</g>
<ellipse id="Ellipse 1" cx="148.5" cy="573" rx="215.5" ry="214" fill="url(#paint5_linear_0_1)" fill-opacity="0.4"/>
<rect id="Rectangle 3" x="1229" y="48" width="300" height="300" rx="25" fill="#FFFBFB" fill-opacity="0.9"/>
<g id="placeholder-logo"><g transform="translate(1229,48) translate(0.0,60.0) scale(1.2000)"><g fill="#666666">
  <path d="m88.05,27.65c-3.15,4 -3.2,51.2 -0.05,54.35c2.75,2.75 71.7,3.15 74.45,0.45c2.85,-2.9 2.3,-53.85 -0.65,-55.9c-1.95,-1.35 -7.15,-1.55 -36.95,-1.55l-34.7,0l-2.1,2.65zm69.45,3.35c0.65,0 1,8.6 1,23.75l0,23.75l-33,0l-33,0l-0.25,-23c-0.15,-12.6 -0.1,-23.45 0.15,-24.1c0.35,-0.85 8.9,-1.05 32.25,-0.75c17.55,0.2 32.3,0.35 32.85,0.35z"/>
  <path d="m99.15,37.3c-6.85,7.35 4.25,17.35 11.4,10.25c1.35,-1.35 2.45,-3.65 2.45,-5.05c0,-6.45 -9.35,-9.95 -13.85,-5.2z"/>
  <path d="m135,42.5c-0.7,0.85 -5.25,5.15 -10.1,9.6l-8.85,8.1l-3.2,-3.2l-3.15,-3.15l-6.35,6.3c-5.55,5.5 -6.35,6.75 -6.35,10.05l0,3.8l28.5,0l28.5,0l0,-8.6l0,-8.55l-8.15,-7.7c-9.35,-8.85 -9.15,-8.7 -10.85,-6.65zm7.25,15.2c0.95,0.9 1.75,2.9 1.75,4.45c6.35,-5.05 4.75,-7.15 4.9,-11.55c0.95,0 0,0 0,0l-6.65,7.1z"/>
  <path d="m53.65,110.75c0.1,4.8 0.45,8.65 0.75,8.5c0.35,-0.15 1.3,-0.25 2.1,-0.25c1.1,0 1.5,-1.2 1.5,-4.75l0,-4.75l3.25,5c4.9,7.5 6.2,6.75 6.55,-3.75c0.25,-8.15 0.15,-8.75 -1.7,-8.75c-1.65,0 -2.05,0.8 -2.3,4.75l-0.3,4.75l-2.8,-4.75c-4.85,-8.25 -7.25,-6.9 -7.05,4z"/>
  <path d="m91,108.9c0,9.65 0.3,10.1 6.1,10.1c5.8,0 7.15,-2.65 1.65,-3.2l-3.25,-0.3l-0.3,-6.75c-0.25,-5.95 -0.55,-6.75 -2.25,-6.75c-1.75,0 -1.95,0.7 -1.95,6.9z"/>
  <path d="m151,102.45c0,0.25 1,2.15 2.25,4.2c1.2,2.1 2.45,5.8 2.75,8.25c0.65,5.9 4,6.95 4,1.25c0.05,-2.1 1.25,-5.85 2.95,-8.9l2.9,-5.25l-2.5,0c-1.8,0 -2.8,0.85 -3.75,3.1l-1.3,3.05l-1.25,-3.05c-1.1,-2.6 -6.05,-4.8 -6.05,-2.65z"/>
  <path d="m191,107.45c0,9.05 3.4,8.85 4.25,-0.2c0.45,-5 0.35,-5.25 -1.9,-5.25c-2.2,0 -2.35,0.4 -2.35,5.45z"/>
  <path d="m180.8,104.75c-1.3,5.35 0.65,13.6 3.45,14.35c2.3,0.6 2.75,0.4 2.75,-1.2c0,-1.05 -0.45,-1.9 -1,-1.9c-0.55,0 -1,-1.6 -1,-3.5c0,-1.95 0.45,-3.5 1,-3.5c0.55,0 1,-0.7 1,-1.5c0,-0.85 -0.45,-1.5 -1,-1.5c-0.55,0 -1,-0.7 -1,-1.5c0,-2.1 -3.65,-1.9 -4.2,0.25z"/>
  <path d="m71.55,106.55c-2.2,2.25 -2.05,9.7 0.3,11.8c4.5,4.1 10.15,0.75 10.15,-6.1c0,-4.85 -2,-7.25 -6,-7.25c-1.55,0 -3.55,0.7 -4.45,1.55zm6.25,5.8c0.25,3.05 0,3.65 -1.6,3.65c-2.3,0 -3.25,-2.65 -2.05,-5.85c1.25,-3.35 3.3,-2.1 3.65,2.2z"/>
  <path d="m105.75,106.1c-2.5,1.45 -2.45,9.95 0.1,12.25c4.3,3.9 10.15,0.35 10.15,-6.2c0,-6 -5.15,-9.05 -10.25,-6.05zm6.05,6.25c0.25,3.05 0,3.65 -1.6,3.65c-2.3,0 -3.25,-2.65 -2.05,-5.85c1.25,-3.35 3.3,-2.1 3.65,2.2z"/>
  <path d="m119.2,106.2c-3.8,3.8 -0.4,12.55 4.4,11.35c1.9,-0.45 2.45,-0.3 2.15,0.65c-0.25,0.7 -1.55,1.2 -2.85,1.1c-4.05,-0.3 -5.35,0.45 -3.85,2.25c0.85,1.05 2.6,1.45 5.35,1.25l4.1,-0.3l0.3,-8.75l0.3,-8.75l-4.35,0c-2.4,0 -4.9,0.55 -5.55,1.2zm6.6,4.45c0.4,2.85 -2.15,4.85 -3.75,2.95c-0.9,-1.1 -0.9,-2 -0.05,-3.6c1.35,-2.5 3.4,-2.15 3.8,0.65z"/>
  <path d="m133.55,106.55c-2.2,2.25 -2.05,9.7 0.3,11.8c4.5,4.1 10.15,0.75 10.15,-6.1c0,-4.85 -2,-7.25 -6,-7.25c-1.55,0 -3.55,0.7 -4.45,1.55zm6.25,5.8c0.25,3.05 0,3.65 -1.6,3.65c-2.3,0 -3.25,-2.65 -2.05,-5.85c1.25,-3.35 3.3,-2.1 3.65,2.2z"/>
  <path d="m167.65,106.85c-3.9,4.3 -0.75,13.15 4.7,13.15c2.4,0 5.65,-2.75 5.65,-4.85c0,-1.4 -2.65,-1.55 -3.5,-0.15c-0.95,1.55 -4.5,1.15 -4.5,-0.5c0,-1.1 1.1,-1.5 4,-1.5c3.15,0 4,-0.35 4,-1.8c0,-5.3 -6.85,-8.25 -10.35,-4.35z"/>
  <path d="m191,117.5c0,2.15 0.4,2.6 2.25,2.3c1.5,-0.2 2.25,-1 2.25,-2.3c0,-1.3 -0.75,-2.1 -2.25,-2.3c-1.85,-0.3 -2.25,0.15 -2.25,2.3z"/>
 </g></g></g>
</g>
<defs>
<linearGradient id="paint0_linear_0_1" x1="0" y1="198" x2="1584" y2="198" gradientUnits="userSpaceOnUse">
<stop stop-color="#3D052C"/>
<stop offset="1"/>
</linearGradient>
<linearGradient id="paint1_linear_0_1" x1="323" y1="-224" x2="323" y2="352" gradientUnits="userSpaceOnUse">
<stop stop-color="#28F6F2" stop-opacity="0.4"/>
<stop offset="1" stop-color="#17908E" stop-opacity="0.7"/>
</linearGradient>
<linearGradient id="paint2_linear_0_1" x1="148.5" y1="38" x2="148.5" y2="140" gradientUnits="userSpaceOnUse">
<stop stop-color="white"/>
<stop offset="1" stop-color="#999999"/>
</linearGradient>
<linearGradient id="paint3_linear_0_1" x1="38" y1="260" x2="26" y2="260" gradientUnits="userSpaceOnUse">
<stop stop-color="#D9D9D9"/>
<stop offset="1" stop-color="#737373"/>
</linearGradient>
<linearGradient id="paint4_linear_0_1" x1="38" y1="97.5" x2="26" y2="97.5" gradientUnits="userSpaceOnUse">
<stop stop-color="#D9D9D9"/>
<stop offset="1" stop-color="#737373"/>
</linearGradient>
<linearGradient id="paint5_linear_0_1" x1="27.5" y1="434.5" x2="148.5" y2="787" gradientUnits="userSpaceOnUse">
<stop stop-color="#2E21BC"/>
<stop offset="1" stop-color="#150F56"/>
</linearGradient>
<clipPath id="clip0_0_1">
<rect width="1584" height="396" fill="white"/>
</clipPath>
</defs>
</svg>
